<svg width="141" height="31" viewBox="0 0 141 31" fill="none" xmlns="http://www.w3.org/2000/svg">
<g clip-path="url(#clip0_106_15)">
<path d="M43.2515 9.99134H44.9755C46.7782 9.99134 47.4739 9.95555 48.2844 9.69905V12.598C49.3128 10.7489 51.3332 9.62747 53.9041 9.62747C56.3298 9.62747 58.1325 10.7131 58.9007 12.8545C59.9654 10.8264 62.0584 9.62747 64.8531 9.62747C68.1983 9.62747 70.3276 11.584 70.3276 15.3896V25.7866H65.2947V16.4753C65.2947 14.5188 64.5204 13.8328 63.0505 13.8328C60.7699 13.8328 59.3 15.4254 59.3 18.1813V25.7926H54.2671V16.4812C54.2671 14.5247 53.4928 13.8387 52.0228 13.8387C49.7423 13.8387 48.2723 15.4314 48.2723 18.1872V25.7985H43.2394V9.99134H43.2515Z" fill="#055B5B"/>
<path d="M73.824 17.9248C73.824 13.4689 77.7923 9.62747 82.2747 9.62747C86.7571 9.62747 90.3201 13.2482 90.3201 18.6883H78.8932C79.0747 20.7879 80.5447 22.4581 83.1579 22.4581C85.0694 22.4581 86.2067 21.6588 86.7934 20.3585L90.2475 22.2434C89.0377 24.5996 86.612 26.1564 82.8978 26.1564C77.6773 26.1564 73.824 22.4939 73.824 17.9307V17.9248ZM78.8932 16.1114H85.2872C85.1783 14.2981 84.035 12.8844 82.2021 12.8844C80.2543 12.8844 79.1533 14.3338 78.8932 16.1114Z" fill="#055B5B"/>
<path d="M95.0263 19.7023V13.797H92.3042V10.5341L92.5583 10.4984C95.1292 10.1345 96.5265 8.57763 96.5265 6.00672V5.06426H96.7503C98.2566 5.06426 99.1398 5.02847 100.059 4.77197V9.99133H105.903V13.797H100.059V20.4658C100.059 21.808 100.682 22.4939 101.602 22.4939C102.521 22.4939 103.368 21.6588 103.882 20.5374L107.3 22.6371C106.344 24.8859 104.1 26.1505 101.457 26.1505C97.5972 26.1505 95.0263 23.6153 95.0263 19.7023Z" fill="#055B5B"/>
<path d="M108.48 23.8659L110.869 21.0743C111.716 22.0168 113.222 22.7385 115.315 22.7385C117.118 22.7385 118.146 22.1957 118.146 21.2532C118.146 20.603 117.668 20.1676 116.235 19.9111L113.628 19.4757C110.615 18.9686 109.109 17.2269 109.109 15.0556C109.109 11.8286 112.345 9.62152 116.495 9.62152C119.326 9.62152 121.788 10.6356 122.78 12.1566L120.209 14.7991C119.398 13.7135 117.965 13.0216 116.35 13.0216C114.88 13.0216 113.96 13.5644 113.96 14.5426C113.96 15.2644 114.474 15.664 116.277 15.9921L118.406 16.3918C121.491 16.9704 122.998 18.4914 122.998 20.7045C122.998 24.0031 119.58 26.1385 115.061 26.1385C112.121 26.1385 109.55 25.2319 108.486 23.854L108.48 23.8659Z" fill="#055B5B"/>
<path d="M125.932 21.7662C125.932 18.0679 129.827 17.382 133.057 16.9823C135.078 16.7258 135.997 16.5826 135.997 15.2047C135.997 13.9759 135.223 13.3198 133.535 13.3198C131.848 13.3198 130.559 13.97 130.009 15.1689L126.7 13.2482C127.952 10.8205 130.813 9.62748 134.158 9.62748C138.308 9.62748 140.994 11.5482 140.994 15.8251V25.7926H136.143V23.5796C135.223 25.2796 133.572 26.1505 131.218 26.1505C127.946 26.1505 125.925 24.4862 125.925 21.7662H125.932ZM127.952 5.42217C127.952 4.15163 128.944 3.17337 130.269 3.17337C131.594 3.17337 132.586 4.15163 132.586 5.42217C132.586 6.69271 131.594 7.67096 130.269 7.67096C128.944 7.67096 127.952 6.69271 127.952 5.42217ZM136.07 19.9529V18.2111C135.628 18.9746 134.933 19.1893 133.644 19.3683C132.392 19.5114 130.704 19.7679 130.704 21.3606C130.704 22.4462 131.4 23.1382 132.906 23.1382C134.745 23.1382 136.064 22.1599 136.064 19.9469L136.07 19.9529ZM135.592 5.42217C135.592 4.15163 136.584 3.17337 137.909 3.17337C139.234 3.17337 140.226 4.15163 140.226 5.42217C140.226 6.69271 139.234 7.67096 137.909 7.67096C136.584 7.67096 135.592 6.69271 135.592 5.42217Z" fill="#055B5B"/>
<path d="M16.2965 9.26958L11.2757 13.1468L9.49115 10.1106L15.4072 7.75447L9.49115 5.39831L11.2757 2.36213L16.2965 6.23937L15.3649 0H19.0125L18.081 6.2334L23.1018 2.35617L24.8863 5.39234L18.9702 7.74851L24.8863 10.1047L23.1018 13.1409L18.081 9.26361L19.0125 15.497H15.3649L16.2965 9.26361V9.26958Z" fill="#055B5B"/>
<path d="M25.7937 24.7666L20.7728 28.6438L18.9883 25.6077L24.9044 23.2515L18.9883 20.8953L20.7728 17.8592L25.7937 21.7364L24.8621 15.503H28.5097L27.5782 21.7364L32.599 17.8592L34.3835 20.8953L28.4674 23.2515L34.3835 25.6077L32.599 28.6438L27.5782 24.7666L28.5097 31H24.8621L25.7937 24.7666Z" fill="#055B5B"/>
<path d="M6.80531 24.7666L1.7845 28.6438L0 25.6077L5.91608 23.2515L0 20.8953L1.7845 17.8592L6.80531 21.7364L5.87374 15.503H9.52139L8.58982 21.7364L13.6106 17.8592L15.3951 20.8953L9.47904 23.2515L15.3951 25.6077L13.6106 28.6438L8.58982 24.7666L9.52139 31H5.87374L6.80531 24.7666Z" fill="#055B5B"/>
</g>
<defs>
<clipPath id="clip0_106_15">
<rect width="141" height="31" fill="white"/>
</clipPath>
</defs>
</svg>
